<svg xmlns="http://www.w3.org/2000/svg" viewBox="0 0 512 512">
  <defs>
    <radialGradient id="bg" cx=".5" cy=".35" r=".8"><stop offset="0" stop-color="#2a1a3a"/><stop offset="1" stop-color="#05060d"/></radialGradient>
  </defs>
  <rect width="512" height="512" rx="112" fill="url(#bg)"/>
  <!-- ghost of the previous pose -->
  <g opacity=".35" stroke="#ff6a6a" stroke-width="16" stroke-linecap="round" fill="none">
    <path d="M226 190L196 250M258 190L300 236M232 272L222 340M252 272L270 338"/>
  </g>
  <!-- the puppet, mid-step -->
  <g stroke-linecap="round" fill="none">
    <path d="M236 184L190 214L166 176" stroke="#b8423a" stroke-width="18"/>
    <path d="M276 184L318 214L346 196" stroke="#b8423a" stroke-width="18"/>
    <path d="M246 270L228 316L200 344M266 270L292 318L300 358" stroke="#2f3e66" stroke-width="20"/>
  </g>
  <rect x="228" y="176" width="58" height="96" rx="14" fill="#b8423a"/>
  <circle cx="257" cy="150" r="27" fill="#e8c39e"/>
  <path d="M235 128L257 88L279 128z" fill="#3a5fb8"/>
  <!-- handles -->
  <circle cx="190" cy="214" r="9" fill="#ffc36a"/><circle cx="318" cy="214" r="9" fill="#ffc36a"/>
  <path d="M166 162l12 14-12 14-12-14z" fill="#7fe7ff"/><path d="M346 182l12 14-12 14-12-14z" fill="#7fe7ff"/>
  <!-- film strip timeline -->
  <rect x="60" y="398" width="392" height="62" rx="10" fill="#0e1122" stroke="#9fb8ff" stroke-opacity=".5" stroke-width="3"/>
  <g fill="#cfc8b4"><rect x="78" y="410" width="52" height="38" rx="3"/><rect x="142" y="410" width="52" height="38" rx="3"/><rect x="270" y="410" width="52" height="38" rx="3"/><rect x="334" y="410" width="52" height="38" rx="3"/></g>
  <rect x="206" y="410" width="52" height="38" rx="3" fill="#f3ead2" stroke="#9fb8ff" stroke-width="4"/>
</svg>
