<svg xmlns="http://www.w3.org/2000/svg" viewBox="0 0 512 512">
  <defs>
    <linearGradient id="bg" x1="0" y1="0" x2="0" y2="1"><stop offset="0" stop-color="#2a1633"/><stop offset="1" stop-color="#0b0712"/></linearGradient>
    <linearGradient id="egg" x1="0" y1="0" x2="1" y2="1"><stop offset="0" stop-color="#ffb3c6"/><stop offset="1" stop-color="#ff7396"/></linearGradient>
  </defs>
  <rect width="512" height="512" rx="112" fill="url(#bg)"/>
  <circle cx="256" cy="74" r="22" fill="none" stroke="#dfe3ec" stroke-width="8"/>
  <path d="M256 92 C 364 92 418 220 418 312 C 418 404 346 460 256 460 C 166 460 94 404 94 312 C 94 220 148 92 256 92 Z" fill="url(#egg)"/>
  <g fill="#fff" opacity="0.6"><circle cx="150" cy="250" r="7"/><circle cx="372" cy="230" r="6"/><circle cx="130" cy="360" r="5"/><circle cx="390" cy="370" r="7"/><circle cx="330" cy="140" r="5"/></g>
  <ellipse cx="256" cy="300" rx="120" ry="138" fill="#fff3df"/>
  <rect x="170" y="200" width="172" height="124" rx="22" fill="#3b2f52"/>
  <rect x="184" y="214" width="144" height="96" rx="8" fill="#a8b996"/>
  <g fill="#1f2a1d">
    <rect x="228" y="236" width="56" height="6"/><rect x="220" y="242" width="8" height="40"/><rect x="284" y="242" width="8" height="40"/><rect x="228" y="282" width="56" height="6"/>
    <rect x="240" y="254" width="8" height="10"/><rect x="264" y="254" width="8" height="10"/><rect x="248" y="270" width="16" height="5"/>
    <rect x="253" y="224" width="6" height="12"/><rect x="249" y="218" width="14" height="6"/>
    <rect x="232" y="288" width="8" height="6"/><rect x="272" y="288" width="8" height="6"/>
  </g>
  <g fill="#ffd45e" stroke="#e0a93a" stroke-width="3"><circle cx="206" cy="376" r="17"/><circle cx="256" cy="390" r="17"/><circle cx="306" cy="376" r="17"/></g>
</svg>
